# xmcd
#
# Track frame offsets: 
#        150
#        12187
#        26043
#        39150
#        51942
#        65232
#        78874
#        91863
#        104718
#        114997
#        127222
#        137299
#        150150
#        163159
#        172606
#        184124
#        196762
#        209788
#        221363
#        234901
#
# Disc length: 3284 seconds
#
# Revision: 0
# Processed by: cddbd v1.5.2PL0 Copyright (c) Steve Scherf et al.
# Submitted via: ExactAudioCopy v0.99pb5
#
DISCID=040cd214
DTITLE=Percy Mayfield - My Blues
DYEAR=2007
DGENRE=Blues
TTITLE0=Baby You're Still A Square
TTITLE1=Two Years Of Torture
TTITLE2=Please Send Me Someone To Love
TTITLE3=Strange Things Happening
TTITLE4=Lost Love
TTITLE5=Two Hearts Are Greater Than One
TTITLE6=My Blues
TTITLE7=Cry Baby
TTITLE8=I Dare You Baby
TTITLE9=Lost Mind
TTITLE10=Hunt Is On
TTITLE11=Big Question
TTITLE12=Rivers Invitation
TTITLE13=Louisiana
TTITLE14=Lonesome Highway
TTITLE15=Memory Pain
TTITLE16=I Need Love So Bad
TTITLE17=Sugar Mama Peachy Papa
TTITLE18=My Heart Is Cryin
TTITLE19=Voice Within
EXTD=
EXTT0=
EXTT1=
EXTT2=
EXTT3=
EXTT4=
EXTT5=
EXTT6=
EXTT7=
EXTT8=
EXTT9=
EXTT10=
EXTT11=
EXTT12=
EXTT13=
EXTT14=
EXTT15=
EXTT16=
EXTT17=
EXTT18=
EXTT19=
PLAYORDER=
